<?xml version="1.0" encoding="utf-8"?>
<!-- Generator: Adobe Illustrator 24.0.0, SVG Export Plug-In . SVG Version: 6.00 Build 0)  -->
<svg version="1.1" id="Layer_1" xmlns="http://www.w3.org/2000/svg" xmlns:xlink="http://www.w3.org/1999/xlink" x="0px" y="0px"
	 viewBox="0 0 300 489" style="enable-background:new 0 0 300 489;" xml:space="preserve">
<style type="text/css">
	.st0{fill:none;stroke:#E84A56;stroke-width:0.9795;stroke-miterlimit:10;}
	.st1{fill:none;stroke:#E84A56;stroke-width:1.5;stroke-miterlimit:10;}
</style>
<title>border</title>
<g>
	<line class="st0" x1="32.2" y1="16.2" x2="267.8" y2="16.2"/>
	<line class="st0" x1="15.8" y1="457.4" x2="15.8" y2="32.6"/>
	<line class="st0" x1="268.7" y1="473.8" x2="31.3" y2="473.8"/>
	<line class="st0" x1="284.2" y1="33.6" x2="284.2" y2="456.4"/>
</g>
<path class="st1" d="M7,55V13c0-3.3,2.7-6,6-6h42"/>
<path class="st1" d="M244,7l41.9,0.2c3.3,0,6,2.7,6,6.1l-0.2,41.9"/>
<path class="st1" d="M55.1,481.9l-42,0.1c-3.3,0-6-2.7-6-6L7,434"/>
<path class="st1" d="M293,434l-0.1,42c0,3.3-2.7,6-6,6l-42-0.1"/>
</svg>
